<svg width="56" height="56" viewBox="0 0 56 56" fill="none" xmlns="http://www.w3.org/2000/svg">
<path d="M31.1339 36.309H34.8449V30.271H40.8609V27.176H34.8449V23.971H41.3649V20.766H31.1339V36.31V36.309ZM19.7389 20.765L13.2189 36.309H17.3019L18.4429 33.257H24.4589L25.6669 36.309H29.8379L23.3839 20.765H19.7389ZM19.5189 30.249L21.4949 24.914L23.4269 30.249H19.5189ZM6.14888 23.783C6.35388 23.659 6.58388 23.574 6.83988 23.531C7.09588 23.488 7.34888 23.466 7.59788 23.466C8.08188 23.466 8.58188 23.586 9.10188 23.828C9.62088 24.069 10.0429 24.395 10.3639 24.805L12.7569 22.28C12.0689 21.651 11.2679 21.175 10.3529 20.853C9.43788 20.531 8.54188 20.37 7.66388 20.37C6.93188 20.37 6.20588 20.462 5.48988 20.645C4.77388 20.828 4.12888 21.117 3.55788 21.512C2.98788 21.907 2.52588 22.412 2.17588 23.027C1.82388 23.642 1.64888 24.381 1.64888 25.244C1.64888 25.946 1.76188 26.543 1.98788 27.033C2.21488 27.523 2.51488 27.94 2.88888 28.284C3.26188 28.628 3.68688 28.91 4.16188 29.129C4.63688 29.349 5.12388 29.539 5.62188 29.7C6.13388 29.861 6.59188 30.011 6.99388 30.15C7.39588 30.289 7.73288 30.443 8.00288 30.611C8.27388 30.78 8.48188 30.966 8.62888 31.171C8.77488 31.376 8.84888 31.625 8.84888 31.918C8.84888 32.225 8.78988 32.489 8.67388 32.708C8.55588 32.928 8.39988 33.103 8.20088 33.235C8.00388 33.367 7.77388 33.462 7.50988 33.521C7.24688 33.58 6.97488 33.609 6.69788 33.609C6.08288 33.609 5.46388 33.452 4.84188 33.137C4.21988 32.823 3.71888 32.431 3.33888 31.962L0.879883 34.465C1.56788 35.182 2.43088 35.735 3.46988 36.123C4.50888 36.51 5.58488 36.705 6.69788 36.705C7.45888 36.705 8.19788 36.602 8.91488 36.397C9.63188 36.192 10.2679 35.878 10.8249 35.453C11.3809 35.029 11.8229 34.491 12.1529 33.84C12.4829 33.189 12.6469 32.417 12.6469 31.524C12.6469 30.748 12.4939 30.101 12.1869 29.581C11.8799 29.061 11.4909 28.626 11.0229 28.274C10.5539 27.923 10.0349 27.641 9.46288 27.429C8.89288 27.217 8.34388 27.023 7.81688 26.847C7.45088 26.731 7.12088 26.617 6.82888 26.507C6.53688 26.397 6.28388 26.276 6.07188 26.145C5.85888 26.013 5.69788 25.859 5.58788 25.684C5.47788 25.509 5.42388 25.289 5.42388 25.026C5.42388 24.719 5.49288 24.466 5.63288 24.268C5.77188 24.071 5.94388 23.91 6.14888 23.785V23.783ZM51.8359 26.605C51.3529 26.093 50.7759 25.701 50.1019 25.43C49.4289 25.159 48.6889 25.024 47.8849 25.024C47.0509 25.024 46.2739 25.163 45.5579 25.441C44.8399 25.719 44.2189 26.11 43.6919 26.616C43.1649 27.121 42.7479 27.736 42.4409 28.46C42.1329 29.184 41.9799 29.993 41.9799 30.886C41.9799 31.808 42.1379 32.628 42.4509 33.345C42.7659 34.062 43.1979 34.666 43.7469 35.156C44.2959 35.646 44.9359 36.02 45.6679 36.276C46.3999 36.532 47.1759 36.66 47.9949 36.66C49.1069 36.66 50.0839 36.459 50.9259 36.057C51.7679 35.654 52.4449 35.08 52.9569 34.333L50.4539 32.752C50.2039 33.089 49.8829 33.364 49.4879 33.576C49.0919 33.788 48.6089 33.894 48.0379 33.894C47.7159 33.894 47.4059 33.843 47.1049 33.74C46.8049 33.637 46.5349 33.495 46.2929 33.312C46.0509 33.129 45.8539 32.913 45.7009 32.664C45.5469 32.416 45.4549 32.137 45.4259 31.83H53.3519C53.3659 31.698 53.3739 31.559 53.3739 31.413V30.974C53.3739 30.038 53.2389 29.203 52.9679 28.471C52.6959 27.739 52.3199 27.117 51.8369 26.605H51.8359ZM45.4259 29.59C45.4399 29.312 45.5139 29.045 45.6459 28.789C45.7779 28.533 45.9529 28.31 46.1729 28.119C46.3929 27.929 46.6489 27.779 46.9419 27.669C47.2349 27.559 47.5569 27.504 47.9079 27.504C48.6249 27.504 49.1629 27.709 49.5209 28.119C49.8799 28.529 50.0589 29.019 50.0589 29.59H45.4259ZM55.5829 24.719C55.4959 24.519 55.3779 24.345 55.2289 24.198C55.0789 24.051 54.9039 23.934 54.7049 23.848C54.5049 23.761 54.2919 23.718 54.0649 23.718C53.8379 23.718 53.6249 23.761 53.4249 23.848C53.2249 23.935 53.0509 24.052 52.9009 24.198C52.7509 24.345 52.6329 24.519 52.5469 24.719C52.4599 24.919 52.4169 25.132 52.4169 25.359C52.4169 25.586 52.4599 25.798 52.5469 25.995C52.6329 26.193 52.7519 26.365 52.9009 26.512C53.0499 26.659 53.2249 26.775 53.4249 26.859C53.6249 26.944 53.8379 26.986 54.0649 26.986C54.2919 26.986 54.5049 26.944 54.7049 26.859C54.9049 26.775 55.0789 26.659 55.2289 26.512C55.3789 26.365 55.4959 26.193 55.5829 25.995C55.6699 25.798 55.7129 25.585 55.7129 25.359C55.7129 25.133 55.6699 24.919 55.5829 24.719ZM55.3449 25.894C55.2719 26.063 55.1729 26.211 55.0479 26.339C54.9229 26.467 54.7759 26.566 54.6069 26.639C54.4389 26.711 54.2579 26.747 54.0649 26.747C53.8719 26.747 53.6909 26.711 53.5219 26.639C53.3539 26.566 53.2069 26.467 53.0819 26.339C52.9559 26.211 52.8579 26.063 52.7849 25.894C52.7119 25.725 52.6769 25.547 52.6769 25.359C52.6769 25.166 52.7129 24.985 52.7849 24.817C52.8569 24.649 52.9559 24.501 53.0819 24.376C53.2069 24.251 53.3539 24.152 53.5219 24.08C53.6909 24.008 53.8719 23.971 54.0649 23.971C54.2579 23.971 54.4389 24.007 54.6069 24.08C54.7759 24.152 54.9229 24.251 55.0479 24.376C55.1729 24.502 55.2719 24.649 55.3449 24.817C55.4169 24.986 55.4529 25.167 55.4529 25.359C55.4529 25.547 55.4169 25.725 55.3449 25.894ZM54.6429 25.298C54.7199 25.214 54.7589 25.104 54.7589 24.969C54.7589 24.868 54.7399 24.783 54.7019 24.716C54.6629 24.649 54.6119 24.593 54.5459 24.55C54.4799 24.507 54.4069 24.475 54.3249 24.456C54.2429 24.437 54.1579 24.427 54.0709 24.427H53.4209V26.278H53.7529V25.504H53.9909L54.4259 26.278H54.8299L54.3309 25.468C54.4609 25.439 54.5649 25.383 54.6419 25.298H54.6429ZM54.0219 25.236H53.7539V24.708H54.0569C54.1439 24.708 54.2269 24.725 54.3059 24.759C54.3849 24.793 54.4259 24.86 54.4259 24.961C54.4259 25.072 54.3819 25.145 54.2959 25.182C54.2089 25.218 54.1189 25.236 54.0219 25.236Z" fill="#7E7E7E"/>
</svg>
