<svg width="24" height="24" viewBox="0 0 24 24" fill="none" xmlns="http://www.w3.org/2000/svg">
<g clip-path="url(#clip0_3167_760)">
<path d="M24 8.77H21.532V16.335H20.107V8.77H17.645V7.53H24V8.77ZM17.148 16.335H12.327V7.53H16.957V8.77H13.752V11.264H16.705V12.498H13.752V15.102H17.148V16.335ZM10.44 16.335H8.882L4.78 9.863C4.67739 9.70192 4.59097 9.53109 4.522 9.353H4.486C4.518 9.542 4.534 9.945 4.534 10.563V16.335H3.157V7.53H4.816L8.781 13.85C8.948 14.111 9.056 14.292 9.104 14.39H9.128C9.088 14.157 9.068 13.761 9.068 13.205V7.529H10.44V16.335ZM1.737 15.642C1.737 15.7509 1.71452 15.8588 1.67083 15.9595C1.62715 16.0601 1.56312 16.1515 1.48242 16.2285C1.40171 16.3055 1.3059 16.3666 1.20048 16.4082C1.09505 16.4498 0.982072 16.4711 0.868001 16.471C0.753925 16.471 0.640968 16.4495 0.535589 16.4078C0.43021 16.3661 0.334476 16.3049 0.253861 16.2278C0.173247 16.1508 0.109332 16.0592 0.0657724 15.9586C0.022213 15.8579 -0.000136975 15.7499 6.31568e-07 15.641C0.000278106 15.4213 0.0918503 15.2107 0.254602 15.0555C0.417353 14.9002 0.637974 14.813 0.868001 14.813C0.982072 14.8129 1.09505 14.8342 1.20048 14.8758C1.3059 14.9174 1.40171 14.9785 1.48242 15.0555C1.56312 15.1325 1.62715 15.2239 1.67083 15.3245C1.71452 15.4252 1.737 15.5331 1.737 15.642Z" fill="#512BD4"/>
</g>
<defs>
<clipPath id="clip0_3167_760">
<rect width="24" height="24" fill="white"/>
</clipPath>
</defs>
</svg>
