<svg fill="none" height="24" viewBox="0 0 24 24" width="24" xmlns="http://www.w3.org/2000/svg" xmlns:xlink="http://www.w3.org/1999/xlink"><clipPath id="a"><path d="m0 0h24v24h-24z"/></clipPath><g clip-path="url(#a)"><path d="m12.0018 0c-.5672 0-1.1111.225306-1.5122.626352-.401.401048-.62631.944978-.62631 1.512148s.22531 1.1111.62631 1.51215c.4011.40104.945.62635 1.5122.62635s1.1111-.22531 1.5121-.62635c.4011-.40105.6264-.94498.6264-1.51215s-.2253-1.1111-.6264-1.512148c-.401-.401046-.9449-.626352-1.5121-.626352zm8.54 4.931c-.5672 0-1.1111.22531-1.5122.62635-.401.40105-.6263.94498-.6263 1.51215s.2253 1.1111.6263 1.51215c.4011.40104.945.62635 1.5122.62635s1.1111-.22531 1.5121-.62635c.4011-.40105.6264-.94498.6264-1.51215s-.2253-1.1111-.6264-1.51215c-.401-.40104-.9449-.62635-1.5121-.62635zm0 9.862c-.5672 0-1.1111.2253-1.5122.6264-.401.401-.6263.9449-.6263 1.5121s.2253 1.1111.6263 1.5121c.4011.4011.945.6264 1.5122.6264s1.1111-.2253 1.5121-.6264c.4011-.401.6264-.9449.6264-1.5121s-.2253-1.1111-.6264-1.5121c-.401-.4011-.9449-.6264-1.5121-.6264zm-8.54 4.931c-.567 0-1.1109.2253-1.5118.6262-.401.401-.62621.9448-.62621 1.5118s.22521 1.1108.62621 1.5118c.4009.4009.9448.6262 1.5118.6262s1.1108-.2253 1.5118-.6262c.4009-.401.6262-.9448.6262-1.5118s-.2253-1.1108-.6262-1.5118c-.401-.4009-.9448-.6262-1.5118-.6262zm-8.54201-4.93c-.28077 0-.55878.0553-.81818.1627-.25939.1075-.49508.265-.69362.4635-.19853.1985-.35601.4342-.46346.6936-.10744.2594-.16274.5374-.16274.8182s.0553.5588.16274.8182c.10745.2594.26493.4951.46346.6936.19854.1985.43423.356.69362.4635.2594.1074.53741.1627.81818.1627.56716 0 1.1111-.2253 1.51215-.6264.40104-.401.62635-.9449.62635-1.5121s-.22531-1.1111-.62635-1.5121c-.40105-.4011-.94499-.6254-1.51215-.6254zm0-9.863c-.56717 0-1.1111.22531-1.51215.62635-.40105.40105-.62635.94498-.62635 1.51215s.2253 1.1111.62635 1.51215c.40105.40104.94498.62635 1.51215.62635.56716 0 1.1111-.22531 1.51215-.62635.40104-.40105.62635-.94498.62635-1.51215s-.22531-1.1111-.62635-1.51215c-.40105-.40104-.94499-.62635-1.51215-.62635zm8.54201-3.378-9.04901 5.224v10.448l9.04901 5.224 9.047-5.224v-10.448zm0 1.601 7.66 13.27h-15.32201zm-1.387.371-6.64501 11.512v-7.674zm2.774 0 6.646 3.838v7.674zm-8.03401 13.915h13.29301l-6.646 3.836z" fill="#e10098"/></g></svg>