<svg width="24" height="24" viewBox="0 0 24 24" fill="none" xmlns="http://www.w3.org/2000/svg">
<g clip-path="url(#clip0_3167_433)">
<path d="M23.6418 5.43C23.651 5.46252 23.6558 5.49617 23.6558 5.53V10.679C23.6558 10.814 23.5827 10.939 23.4667 11.005L19.1437 13.495V18.429C19.1436 18.495 19.1262 18.5599 19.0932 18.6171C19.0602 18.6742 19.0128 18.7218 18.9557 18.755L9.92975 23.949C9.90884 23.9605 9.8867 23.9695 9.86375 23.976C9.85575 23.978 9.84775 23.984 9.83975 23.986C9.77702 24.004 9.71048 24.004 9.64775 23.986C9.63675 23.984 9.62775 23.978 9.61775 23.974C9.59775 23.966 9.57575 23.96 9.55575 23.949L0.53275 18.755C0.47535 18.7221 0.427648 18.6746 0.394464 18.6174C0.361279 18.5601 0.343785 18.4952 0.34375 18.429V2.974C0.34375 2.941 0.34875 2.908 0.35775 2.876C0.36075 2.864 0.36775 2.856 0.37175 2.844C0.377765 2.82405 0.38546 2.80465 0.39475 2.786C0.39875 2.773 0.40975 2.764 0.41775 2.753L0.45075 2.708C0.46275 2.698 0.47575 2.69 0.48775 2.681C0.50175 2.669 0.51475 2.657 0.52875 2.647L5.04275 0.0499963C5.09976 0.0170832 5.16442 -0.000244141 5.23025 -0.000244141C5.29608 -0.000244141 5.36074 0.0170832 5.41775 0.0499963L9.92975 2.647H9.93175C9.94675 2.657 9.95875 2.668 9.97175 2.68L10.0098 2.707C10.0227 2.721 10.0298 2.737 10.0428 2.752C10.0508 2.763 10.0627 2.773 10.0677 2.785C10.0778 2.805 10.0848 2.823 10.0918 2.843C10.0948 2.854 10.1017 2.864 10.1047 2.875C10.1147 2.906 10.1188 2.939 10.1188 2.973V12.625L13.8787 10.461V5.527C13.8787 5.494 13.8828 5.461 13.8918 5.429C13.8948 5.419 13.9017 5.409 13.9047 5.397C13.9115 5.37683 13.9195 5.35712 13.9288 5.338C13.9358 5.326 13.9468 5.318 13.9538 5.305C13.9658 5.29 13.9748 5.275 13.9868 5.262C13.9988 5.25 14.0118 5.242 14.0238 5.234C14.0378 5.224 14.0497 5.211 14.0647 5.202H14.0658L18.5788 2.604C18.6358 2.57108 18.7004 2.55376 18.7663 2.55376C18.8321 2.55376 18.8967 2.57108 18.9538 2.604L23.4667 5.202C23.4827 5.212 23.4938 5.223 23.5088 5.233C23.5208 5.243 23.5338 5.251 23.5448 5.261C23.5578 5.275 23.5668 5.291 23.5788 5.305C23.5868 5.317 23.5978 5.326 23.6028 5.338C23.6138 5.358 23.6208 5.378 23.6268 5.398C23.6328 5.408 23.6388 5.419 23.6418 5.43ZM22.9018 10.462V6.179L21.3237 7.087L19.1418 8.343V12.626L22.9018 10.462ZM18.3918 18.212V13.925L16.2448 15.15L10.1188 18.648V22.973L18.3918 18.212ZM1.09275 3.624V18.212L9.36575 22.973V18.648L5.04375 16.203L5.04175 16.2H5.03975C5.02575 16.19 5.01475 16.179 4.99975 16.169C4.98875 16.159 4.97575 16.151 4.96475 16.142L4.96375 16.14C4.95075 16.128 4.94275 16.115 4.93275 16.1C4.92275 16.089 4.91175 16.078 4.90475 16.064H4.90275C4.89475 16.05 4.88975 16.033 4.88275 16.017C4.87675 16.001 4.86875 15.99 4.86475 15.974C4.86097 15.9552 4.8583 15.9361 4.85675 15.917C4.85475 15.903 4.85075 15.89 4.85075 15.876V5.789L2.67075 4.532L1.09275 3.624ZM5.22975 0.809996L1.46975 2.974L5.22975 5.138L8.98775 2.974L5.22975 0.809996ZM7.18575 14.315L9.36775 13.059V3.624L7.78775 4.534L5.60575 5.789V15.224L7.18575 14.315ZM18.7668 3.365L15.0068 5.528L18.7668 7.691L22.5257 5.527L18.7668 3.365ZM18.3908 8.343L16.2097 7.087L14.6298 6.18V10.463L16.8118 11.719L18.3918 12.627L18.3908 8.343ZM9.74075 17.997L15.2548 14.849L18.0107 13.277L14.2537 11.114L9.93075 13.603L5.98975 15.873L9.74075 17.997Z" fill="#FF2D20"/>
</g>
<defs>
<clipPath id="clip0_3167_433">
<rect width="24" height="24" fill="white"/>
</clipPath>
</defs>
</svg>
