<svg width="24" height="24" viewBox="0 0 24 24" fill="none" xmlns="http://www.w3.org/2000/svg">
<g clip-path="url(#clip0_3167_47)">
<path d="M11.9984 24C11.6774 24 11.3574 23.916 11.0764 23.753L8.1404 22.016C7.7024 21.771 7.9164 21.684 8.0604 21.633C8.6454 21.43 8.7634 21.383 9.3884 21.029C9.4534 20.992 9.5394 21.006 9.6064 21.046L11.8624 22.385C11.9444 22.43 12.0594 22.43 12.1344 22.385L20.9294 17.309C21.0114 17.262 21.0634 17.168 21.0634 17.071V6.921C21.0634 6.822 21.0104 6.729 20.9264 6.679L12.1354 1.607C12.0544 1.56 11.9464 1.56 11.8644 1.607L3.0754 6.68C2.9904 6.729 2.9364 6.825 2.9364 6.921V17.071C2.9364 17.168 2.9904 17.26 3.0754 17.306L5.4844 18.698C6.7914 19.352 7.5924 18.582 7.5924 17.808V7.787C7.5924 7.645 7.7064 7.534 7.8484 7.534H8.9634C9.1024 7.534 9.2184 7.646 9.2184 7.787V17.808C9.2184 19.553 8.2684 20.553 6.6144 20.553C6.1064 20.553 5.7054 20.553 4.5884 20.002L2.2804 18.675C1.7104 18.346 1.3584 17.73 1.3584 17.071V6.921C1.3584 6.262 1.7114 5.646 2.2804 5.318L11.0754 0.235998C11.6324 -0.0790018 12.3714 -0.0790018 12.9234 0.235998L21.7174 5.318C22.2874 5.647 22.6414 6.262 22.6414 6.921V17.071C22.6414 17.73 22.2874 18.344 21.7174 18.675L12.9234 23.753C12.6434 23.916 12.3244 24 11.9984 24ZM19.0994 13.993C19.0994 12.093 17.8154 11.587 15.1124 11.23C12.3814 10.869 12.1034 10.682 12.1034 10.043C12.1034 9.515 12.3384 8.81 14.3614 8.81C16.1684 8.81 16.8344 9.199 17.1084 10.417C17.1324 10.532 17.2374 10.616 17.3554 10.616H18.4964C18.5674 10.616 18.6344 10.585 18.6824 10.535C18.7304 10.481 18.7564 10.412 18.7494 10.339C18.5724 8.241 17.1784 7.263 14.3614 7.263C11.8534 7.263 10.3574 8.321 10.3574 10.096C10.3574 12.021 11.8454 12.553 14.2524 12.791C17.1324 13.073 17.3554 13.494 17.3554 14.06C17.3554 15.043 16.5664 15.462 14.7134 15.462C12.3864 15.462 11.8744 14.878 11.7024 13.72C11.6824 13.596 11.5764 13.505 11.4494 13.505H10.3124C10.1714 13.505 10.0584 13.617 10.0584 13.758C10.0584 15.24 10.8644 17.006 14.7134 17.006C17.5014 17.007 19.0994 15.91 19.0994 13.993Z" fill="#339933"/>
</g>
<defs>
<clipPath id="clip0_3167_47">
<rect width="24" height="24" fill="white"/>
</clipPath>
</defs>
</svg>
