<svg width="24" height="24" viewBox="0 0 24 24" fill="none" xmlns="http://www.w3.org/2000/svg">
<g clip-path="url(#clip0_3167_833)">
<path d="M1.19434 7.543V16.456C1.19434 17.559 1.78234 18.578 2.73834 19.13L10.4563 23.586C10.9257 23.8572 11.4582 24 12.0003 24C12.5424 24 13.075 23.8572 13.5443 23.586L21.2623 19.13C21.7318 18.8591 22.1216 18.4693 22.3927 17.9999C22.6637 17.5305 22.8064 16.998 22.8063 16.456V7.543C22.8065 7.00108 22.6639 6.46868 22.3928 5.99942C22.1218 5.53016 21.7319 5.14061 21.2623 4.87L13.5443 0.414C13.075 0.142776 12.5424 -2.28882e-05 12.0003 -2.28882e-05C11.4582 -2.28882e-05 10.9257 0.142776 10.4563 0.414L2.73834 4.87C2.26888 5.14069 1.87902 5.53026 1.60797 5.9995C1.33692 6.46874 1.19426 7.0011 1.19434 7.543ZM6.59734 10.457V13.544C6.59707 13.6455 6.61686 13.746 6.65556 13.8397C6.69427 13.9335 6.75112 14.0187 6.82286 14.0905C6.8946 14.1622 6.97981 14.2191 7.07359 14.2578C7.16738 14.2965 7.26788 14.3163 7.36934 14.316C7.574 14.3157 7.77021 14.2343 7.91493 14.0896C8.05965 13.9449 8.14107 13.7487 8.14134 13.544C8.14196 13.3917 8.18756 13.243 8.27242 13.1165C8.35727 12.99 8.4776 12.8914 8.61829 12.8331C8.75899 12.7748 8.91377 12.7593 9.06323 12.7886C9.21268 12.818 9.35013 12.8908 9.45834 12.998C9.60282 13.143 9.68407 13.3393 9.68434 13.544C9.68434 13.8481 9.62444 14.1492 9.50808 14.4301C9.39171 14.711 9.22116 14.9663 9.00614 15.1813C8.79113 15.3963 8.53587 15.5669 8.25494 15.6832C7.97401 15.7996 7.67291 15.8595 7.36884 15.8595C7.06476 15.8595 6.76366 15.7996 6.48273 15.6832C6.2018 15.5669 5.94654 15.3963 5.73153 15.1813C5.51652 14.9663 5.34596 14.711 5.22959 14.4301C5.11323 14.1492 5.05334 13.8481 5.05334 13.544V10.457C5.05334 9.842 5.29734 9.254 5.73234 8.82C5.9471 8.60466 6.20225 8.43381 6.48315 8.31724C6.76406 8.20066 7.0652 8.14066 7.36934 8.14066C7.67347 8.14066 7.97461 8.20066 8.25552 8.31724C8.53642 8.43381 8.79157 8.60466 9.00634 8.82C9.44034 9.254 9.68434 9.843 9.68434 10.457C9.6844 10.5582 9.66446 10.6585 9.62568 10.752C9.5869 10.8456 9.53003 10.9305 9.45834 11.002C9.387 11.0742 9.30205 11.1315 9.20842 11.1706C9.11478 11.2097 9.01431 11.2298 8.91284 11.2298C8.81136 11.2298 8.71089 11.2097 8.61726 11.1706C8.52362 11.1315 8.43867 11.0742 8.36734 11.002C8.29569 10.9305 8.23885 10.8455 8.20007 10.752C8.16129 10.6585 8.14133 10.5582 8.14134 10.457C8.1416 10.3555 8.12181 10.255 8.08311 10.1613C8.04441 10.0675 7.98755 9.98226 7.91581 9.91053C7.84407 9.83879 7.75886 9.78193 7.66508 9.74323C7.5713 9.70452 7.47079 9.68474 7.36934 9.685C7.26792 9.68487 7.16747 9.70475 7.07375 9.7435C6.98003 9.78225 6.89487 9.83911 6.82316 9.91082C6.75144 9.98253 6.69458 10.0677 6.65583 10.1614C6.61708 10.2551 6.5972 10.3556 6.59734 10.457ZM18.9473 13.544C18.9476 13.6455 18.9278 13.746 18.8891 13.8397C18.8504 13.9335 18.7936 14.0187 18.7218 14.0905C18.6501 14.1622 18.5649 14.2191 18.4711 14.2578C18.3773 14.2965 18.2768 14.3163 18.1753 14.316H17.4033V15.088C17.3933 15.286 17.3075 15.4725 17.1639 15.609C17.0202 15.7456 16.8295 15.8217 16.6313 15.8217C16.4331 15.8217 16.2425 15.7456 16.0988 15.609C15.9551 15.4725 15.8694 15.286 15.8593 15.088V14.316H14.3153V15.088C14.3147 15.2403 14.2691 15.389 14.1843 15.5155C14.0994 15.642 13.9791 15.7406 13.8384 15.7989C13.6977 15.8572 13.5429 15.8727 13.3934 15.8434C13.244 15.814 13.1065 15.7412 12.9983 15.634C12.8539 15.489 12.7726 15.2927 12.7723 15.088V14.316H12.0003C11.7956 14.316 11.5992 14.2347 11.4544 14.0899C11.3097 13.9451 11.2283 13.7487 11.2283 13.544C11.2283 13.3393 11.3097 13.1429 11.4544 12.9981C11.5992 12.8533 11.7956 12.772 12.0003 12.772H12.7723V11.229H12.0003C11.7956 11.229 11.5992 11.1477 11.4544 11.0029C11.3097 10.8581 11.2283 10.6617 11.2283 10.457C11.2283 10.2523 11.3097 10.0559 11.4544 9.91111C11.5992 9.76634 11.7956 9.685 12.0003 9.685H12.7723V8.913C12.773 8.7607 12.8186 8.61197 12.9034 8.4855C12.9883 8.35902 13.1086 8.26043 13.2493 8.2021C13.39 8.14377 13.5448 8.12831 13.6942 8.15764C13.8437 8.18698 13.9811 8.25981 14.0893 8.367C14.2338 8.51201 14.3151 8.70829 14.3153 8.913V9.685H15.8593V8.913C15.8694 8.71505 15.9551 8.52853 16.0988 8.39199C16.2425 8.25544 16.4331 8.17931 16.6313 8.17931C16.8295 8.17931 17.0202 8.25544 17.1639 8.39199C17.3075 8.52853 17.3933 8.71505 17.4033 8.913V9.685H18.1753C18.3801 9.685 18.5764 9.76634 18.7212 9.91111C18.866 10.0559 18.9473 10.2523 18.9473 10.457C18.9473 10.6617 18.866 10.8581 18.7212 11.0029C18.5764 11.1477 18.3801 11.229 18.1753 11.229H17.4033V12.772H18.1753C18.3798 12.7731 18.5755 12.8547 18.7201 12.9993C18.8646 13.1438 18.9463 13.3396 18.9473 13.544ZM15.8593 11.229H14.3153V12.772H15.8593V11.229Z" fill="#512BD4"/>
</g>
<defs>
<clipPath id="clip0_3167_833">
<rect width="24" height="24" fill="white"/>
</clipPath>
</defs>
</svg>
