<svg width="56" height="56" viewBox="0 0 56 56" fill="none" xmlns="http://www.w3.org/2000/svg">
<path opacity="0.1" d="M10.706 38H5C2.239 38 0 40.239 0 43C0 45.761 2.239 48 5 48H28C20.616 48 14.171 43.968 10.706 38Z" fill="#7E7E7E"/>
<path opacity="0.5" d="M51 48H28V38H51C53.761 38 56 40.239 56 43C56 45.761 53.761 48 51 48Z" fill="#7E7E7E"/>
<path opacity="0.2" d="M28 8V18C33.514 18 38 22.486 38 28H48C48 16.972 39.028 8 28 8Z" fill="#7E7E7E"/>
<path opacity="0.3" d="M28 8V18C22.486 18 18 22.486 18 28H8C8 16.972 16.972 8 28 8Z" fill="#7E7E7E"/>
<path opacity="0.1" d="M48 28H38C38 33.514 33.514 38 28 38H45.294C47.004 35.054 48 31.645 48 28Z" fill="#7E7E7E"/>
<path opacity="0.4" d="M28 48V38C22.486 38 18 33.514 18 28H8C8 39.028 16.972 48 28 48Z" fill="#7E7E7E"/>
<path d="M51 38H45.294C47.004 35.054 48 31.645 48 28C48 16.972 39.028 8 28 8C16.972 8 8 16.972 8 28C8 31.649 9.006 35.056 10.722 38H5C2.239 38 0 40.239 0 43C0 45.761 2.239 48 5 48H51C53.761 48 56 45.761 56 43C56 40.239 53.761 38 51 38ZM42.956 38H34.619C37.595 36.024 39.623 32.753 39.936 29H45.962C45.779 32.316 44.702 35.398 42.956 38ZM29 10.051C38.126 10.556 45.444 17.874 45.949 27H39.949C39.466 21.181 34.819 16.534 29 16.051V10.051ZM27 10.051V16.051C21.181 16.534 16.534 21.181 16.051 27H10.051C10.556 17.874 17.874 10.556 27 10.051ZM19.34 46H5C3.346 46 2 44.654 2 43C2 41.346 3.346 40 5 40H12.038C12.025 39.983 12.013 39.965 12 39.947V39.934C13.949 42.535 16.503 44.656 19.471 46.059C19.428 46.038 19.383 46.021 19.34 46ZM27 45.949C17.874 45.444 10.554 38.124 10.049 29H16.048C16.531 34.819 21.18 39.466 27 39.949V45.949ZM18 28C18 22.486 22.486 18 28 18C33.514 18 38 22.486 38 28C38 33.514 33.514 38 28 38C22.486 38 18 33.514 18 28ZM51 46H29V40H51C52.654 40 54 41.346 54 43C54 44.654 52.654 46 51 46Z" fill="#7E7E7E"/>
</svg>
