<svg width="56" height="56" viewBox="0 0 56 56" fill="none" xmlns="http://www.w3.org/2000/svg">
<path opacity="0.4" d="M53 22H32C30.3431 22 29 23.3431 29 25C29 26.6569 30.3431 28 32 28H53C54.6569 28 56 26.6569 56 25C56 23.3431 54.6569 22 53 22Z" fill="#7E7E7E"/>
<path opacity="0.3" d="M38 15H15C13.3431 15 12 16.3431 12 18C12 19.6569 13.3431 21 15 21H38C39.6569 21 41 19.6569 41 18C41 16.3431 39.6569 15 38 15Z" fill="#7E7E7E"/>
<path opacity="0.2" d="M23 8H10C8.34315 8 7 9.34315 7 11C7 12.6569 8.34315 14 10 14H23C24.6569 14 26 12.6569 26 11C26 9.34315 24.6569 8 23 8Z" fill="#7E7E7E"/>
<path opacity="0.1" d="M18 1H3C1.34315 1 0 2.34315 0 4C0 5.65685 1.34315 7 3 7H18C19.6569 7 21 5.65685 21 4C21 2.34315 19.6569 1 18 1Z" fill="#7E7E7E"/>
<path opacity="0.4" d="M53 49H37C35.3431 49 34 50.3431 34 52C34 53.6569 35.3431 55 37 55H53C54.6569 55 56 53.6569 56 52C56 50.3431 54.6569 49 53 49Z" fill="#7E7E7E"/>
<path opacity="0.3" d="M38 42H24C22.3431 42 21 43.3431 21 45C21 46.6569 22.3431 48 24 48H38C39.6569 48 41 46.6569 41 45C41 43.3431 39.6569 42 38 42Z" fill="#7E7E7E"/>
<path opacity="0.2" d="M32 35H11C9.34315 35 8 36.3431 8 38C8 39.6569 9.34315 41 11 41H32C33.6569 41 35 39.6569 35 38C35 36.3431 33.6569 35 32 35Z" fill="#7E7E7E"/>
<path opacity="0.1" d="M16 28H3C1.34315 28 0 29.3431 0 31C0 32.6569 1.34315 34 3 34H16C17.6569 34 19 32.6569 19 31C19 29.3431 17.6569 28 16 28Z" fill="#7E7E7E"/>
<path d="M29 25C29 26.657 30.343 28 32 28H53C54.657 28 56 26.657 56 25C56 23.343 54.657 22 53 22H32C30.343 22 29 23.343 29 25ZM54 25C54 25.551 53.552 26 53 26H32C31.448 26 31 25.551 31 25C31 24.449 31.448 24 32 24H53C53.552 24 54 24.449 54 25ZM12 18C12 19.657 13.343 21 15 21H38C39.657 21 41 19.657 41 18C41 16.343 39.657 15 38 15H15C13.343 15 12 16.343 12 18ZM39 18C39 18.551 38.552 19 38 19H15C14.448 19 14 18.551 14 18C14 17.449 14.448 17 15 17H38C38.552 17 39 17.449 39 18ZM7 11C7 12.657 8.343 14 10 14H23C24.657 14 26 12.657 26 11C26 9.343 24.657 8 23 8H10C8.343 8 7 9.343 7 11ZM24 11C24 11.551 23.552 12 23 12H10C9.448 12 9 11.551 9 11C9 10.449 9.448 10 10 10H23C23.552 10 24 10.449 24 11ZM3 7H18C19.657 7 21 5.657 21 4C21 2.343 19.657 1 18 1H3C1.343 1 0 2.343 0 4C0 5.657 1.343 7 3 7ZM3 3H18C18.552 3 19 3.449 19 4C19 4.551 18.552 5 18 5H3C2.448 5 2 4.551 2 4C2 3.449 2.448 3 3 3ZM41 45C41 43.343 39.657 42 38 42H24C22.343 42 21 43.343 21 45C21 46.657 22.343 48 24 48H38C39.657 48 41 46.657 41 45ZM23 45C23 44.449 23.448 44 24 44H38C38.552 44 39 44.449 39 45C39 45.551 38.552 46 38 46H24C23.448 46 23 45.551 23 45ZM35 38C35 36.343 33.657 35 32 35H11C9.343 35 8 36.343 8 38C8 39.657 9.343 41 11 41H32C33.657 41 35 39.657 35 38ZM10 38C10 37.449 10.448 37 11 37H32C32.552 37 33 37.449 33 38C33 38.551 32.552 39 32 39H11C10.448 39 10 38.551 10 38ZM19 31C19 29.343 17.657 28 16 28H3C1.343 28 0 29.343 0 31C0 32.657 1.343 34 3 34H16C17.657 34 19 32.657 19 31ZM2 31C2 30.449 2.448 30 3 30H16C16.552 30 17 30.449 17 31C17 31.551 16.552 32 16 32H3C2.448 32 2 31.551 2 31ZM53 49H37C35.343 49 34 50.343 34 52C34 53.657 35.343 55 37 55H53C54.657 55 56 53.657 56 52C56 50.343 54.657 49 53 49ZM53 53H37C36.448 53 36 52.551 36 52C36 51.449 36.448 51 37 51H53C53.552 51 54 51.449 54 52C54 52.551 53.552 53 53 53Z" fill="#7E7E7E"/>
</svg>
