<svg width="56" height="56" viewBox="0 0 56 56" fill="none" xmlns="http://www.w3.org/2000/svg">
<path d="M54.324 28.234L54.876 28.059V26.289C54.876 23.235 53.351 21.686 50.345 21.686H44.758C42.449 21.686 41.044 22.596 40.502 24.449C39.969 22.616 38.535 21.686 36.209 21.686H30.622C27.585 21.686 26.108 23.255 26.108 26.484V26.834C25.879 26.394 25.604 25.996 25.283 25.646C24.722 25.034 24.075 24.572 23.306 24.236C22.53 23.896 21.644 23.724 20.672 23.724C19.623 23.724 18.695 23.91 17.834 24.293C17.019 24.655 16.319 25.159 15.694 25.835L15.671 25.86C15.127 26.471 14.693 27.209 14.38 28.052L14.361 28.105C14.089 28.922 13.956 29.732 13.956 30.581C13.956 31.458 14.092 32.301 14.359 33.087C13.693 32.567 10.248 29.88 9.194 29.054C11.538 26.038 13.827 23.11 15.599 20.845L16.877 19.212L12.228 15.574L1 29.943L14.411 40.427L17.431 36.577C17.616 36.672 17.807 36.763 18.006 36.847L18.054 36.866C18.961 37.215 19.951 37.385 21.08 37.385C21.67 37.385 22.307 37.325 23.036 37.2C23.591 37.102 24.32 36.962 25.043 36.75L26.438 36.34L26.302 35.465C27.001 36.727 28.298 37.348 30.215 37.348H36.334C38.354 37.348 39.679 36.65 40.343 35.236C41.01 36.65 42.34 37.348 44.368 37.348H50.487C53.524 37.348 55.001 35.779 55.001 32.551V31.256C55.001 29.999 54.777 28.994 54.325 28.235L54.324 28.234ZM14.128 38.108L3.344 29.649L12.521 17.935L14.542 19.513C14.542 19.513 9.293 26.224 6.862 29.34C7.6 29.918 15.624 36.203 15.624 36.203L14.128 38.108ZM25.212 30.758C25.212 30.989 25.194 31.184 25.159 31.361H18.242C18.348 32.053 18.65 32.62 19.111 33.028C19.59 33.436 20.335 33.649 21.363 33.649C21.771 33.649 22.232 33.596 22.746 33.489C23.26 33.383 23.757 33.258 24.254 33.099L24.573 35.156C23.97 35.333 23.349 35.458 22.746 35.564C22.125 35.67 21.575 35.724 21.079 35.724C20.139 35.724 19.341 35.582 18.649 35.316C17.975 35.032 17.39 34.66 16.946 34.199C16.485 33.738 16.148 33.188 15.935 32.567C15.722 31.946 15.616 31.29 15.616 30.581C15.616 29.907 15.722 29.269 15.935 28.63C16.166 28.009 16.485 27.442 16.91 26.963C17.353 26.484 17.868 26.094 18.506 25.81C19.144 25.526 19.854 25.384 20.67 25.384C21.415 25.384 22.071 25.508 22.639 25.756C23.207 26.004 23.668 26.341 24.058 26.767C24.448 27.193 24.732 27.707 24.927 28.292C25.122 28.877 25.229 29.498 25.229 30.154C25.229 30.331 25.211 30.526 25.211 30.757L25.212 30.758ZM39.183 32.55C39.183 34.893 38.464 35.684 36.333 35.684H30.214C28.097 35.684 27.346 34.864 27.346 32.55V31.905L27.668 31.833L29.818 31.269V33.247H36.799V30.629H30.621C28.49 30.629 27.771 29.838 27.771 27.495V26.484C27.771 24.141 28.49 23.35 30.621 23.35H36.208C38.272 23.35 39.076 24.174 39.076 26.289V26.841L38.8 26.945L36.746 27.588V25.752C34.577 25.752 32.342 25.752 30.137 25.736V28.122H36.332C38.463 28.122 39.182 28.913 39.182 31.256V32.551L39.183 32.55ZM40.173 28.239L40.271 28.208C40.278 28.296 40.286 28.383 40.295 28.469C40.256 28.391 40.216 28.313 40.172 28.24L40.173 28.239ZM40.806 30.379C40.803 30.346 40.798 30.314 40.795 30.281C40.81 30.31 40.823 30.342 40.838 30.371L40.806 30.379ZM53.319 32.55C53.319 34.893 52.6 35.684 50.469 35.684H44.35C42.233 35.684 41.482 34.864 41.482 32.55V31.905L41.804 31.833L43.954 31.269V33.247H50.935V30.629H44.757C42.626 30.629 41.907 29.838 41.907 27.495V26.484C41.907 24.141 42.626 23.35 44.757 23.35H50.344C52.408 23.35 53.212 24.174 53.212 26.289V26.841L52.935 26.945L50.881 27.588V25.752C48.72 25.752 46.492 25.752 44.273 25.736V28.122H50.468C52.599 28.122 53.318 28.913 53.318 31.256V32.551L53.319 32.55ZM20.618 27.459C19.962 27.459 19.43 27.654 19.022 28.044C18.618 28.431 18.37 28.992 18.28 29.693H22.871C22.8 29.019 22.587 28.469 22.197 28.061C21.807 27.653 21.292 27.459 20.618 27.459Z" fill="#7E7E7E"/>
</svg>
