<svg width="56" height="56" viewBox="0 0 56 56" fill="none" xmlns="http://www.w3.org/2000/svg">
<path opacity="0.4" d="M48 35H20C17.7909 35 16 36.7909 16 39C16 41.2091 17.7909 43 20 43H48C50.2091 43 52 41.2091 52 39C52 36.7909 50.2091 35 48 35Z" fill="#7E7E7E"/>
<path opacity="0.3" d="M36 25H15C12.7909 25 11 26.7909 11 29C11 31.2091 12.7909 33 15 33H36C38.2091 33 40 31.2091 40 29C40 26.7909 38.2091 25 36 25Z" fill="#7E7E7E"/>
<path opacity="0.2" d="M23 15H12C9.79086 15 8 16.7909 8 19C8 21.2091 9.79086 23 12 23H23C25.2091 23 27 21.2091 27 19C27 16.7909 25.2091 15 23 15Z" fill="#7E7E7E"/>
<path opacity="0.1" d="M19 5H4C1.79086 5 0 6.79086 0 9C0 11.2091 1.79086 13 4 13H19C21.2091 13 23 11.2091 23 9C23 6.79086 21.2091 5 19 5Z" fill="#7E7E7E"/>
<path opacity="0.5" d="M52 44H38C35.7909 44 34 45.7909 34 48C34 50.2091 35.7909 52 38 52H52C54.2091 52 56 50.2091 56 48C56 45.7909 54.2091 44 52 44Z" fill="#7E7E7E"/>
<path d="M52 39C52 36.791 50.209 35 48 35H20C17.791 35 16 36.791 16 39C16 41.209 17.791 43 20 43H48C50.209 43 52 41.209 52 39ZM18 39C18 37.897 18.897 37 20 37H48C49.103 37 50 37.897 50 39C50 40.103 49.103 41 48 41H20C18.897 41 18 40.103 18 39ZM52 44H38C35.791 44 34 45.791 34 48C34 50.209 35.791 52 38 52H52C54.209 52 56 50.209 56 48C56 45.791 54.209 44 52 44ZM52 50H38C36.897 50 36 49.103 36 48C36 46.897 36.897 46 38 46H52C53.103 46 54 46.897 54 48C54 49.103 53.103 50 52 50ZM23 23C25.209 23 27 21.209 27 19C27 16.791 25.209 15 23 15H12C9.791 15 8 16.791 8 19C8 21.209 9.791 23 12 23H23ZM10 19C10 17.897 10.897 17 12 17H23C24.103 17 25 17.897 25 19C25 20.103 24.103 21 23 21H12C10.897 21 10 20.103 10 19ZM23 9C23 6.791 21.209 5 19 5H4C1.791 5 0 6.791 0 9C0 11.209 1.791 13 4 13H19C21.209 13 23 11.209 23 9ZM2 9C2 7.897 2.897 7 4 7H19C20.103 7 21 7.897 21 9C21 10.103 20.103 11 19 11H4C2.897 11 2 10.103 2 9ZM40 29C40 26.791 38.209 25 36 25H15C12.791 25 11 26.791 11 29C11 31.209 12.791 33 15 33H36C38.209 33 40 31.209 40 29ZM13 29C13 27.897 13.897 27 15 27H36C37.103 27 38 27.897 38 29C38 30.103 37.103 31 36 31H15C13.897 31 13 30.103 13 29Z" fill="#7E7E7E"/>
</svg>
