<svg width="296" height="24" viewBox="0 0 296 24" fill="none" xmlns="http://www.w3.org/2000/svg">
<g clip-path="url(#clip0_3033_1542)">
<path d="M223.334 2.68101C223.334 6.25601 228.762 6.25601 228.762 2.68101C228.762 -0.893994 223.334 -0.893994 223.334 2.68101ZM251.472 6.62001C249.055 6.62001 247.499 7.48101 246.044 9.69901C244.984 7.31601 243.064 6.65301 241.276 6.65301C239.885 6.65301 237.998 7.08401 236.972 8.87101L236.641 7.01801H232.47V23.371H237.237V14.632C237.237 12.778 238.297 11.023 240.184 11.023C242.137 11.023 242.997 12.447 242.997 14.598V23.37H247.697V14.598C247.697 12.744 248.822 11.122 250.709 11.122C252.63 11.122 253.192 12.48 253.192 14.532V23.37H257.993V14.432C257.993 8.34101 254.881 6.62001 251.472 6.62001ZM287.394 13.24C285.806 13.207 284.978 12.711 284.978 11.817C284.978 11.022 285.773 10.46 287.328 10.46C288.818 10.46 289.977 10.791 291.202 11.652L293.552 8.67301C291.83 7.18401 289.81 6.55401 287.296 6.55401C283.754 6.55401 280.244 8.11001 280.244 11.817C280.244 15.657 284.051 16.915 287.097 17.047C289.315 17.113 289.877 17.742 289.877 18.503C289.911 19.364 288.818 19.927 287.428 19.894C285.705 19.861 283.753 19.496 281.734 17.842L279.681 21.218C282.462 23.535 284.945 23.999 287.362 23.999C292.559 23.999 294.545 21.152 294.512 18.504C294.479 14.002 290.606 13.34 287.394 13.241V13.24ZM223.665 23.37H228.432V6.98501H223.665V23.37ZM269.55 6.58701C264.22 6.58701 260.877 10.063 260.877 15.028C260.877 20.258 264.122 23.734 270.047 23.734C272.496 23.734 275.31 23.039 277.064 21.318L274.383 18.339C273.225 19.332 271.437 19.63 270.146 19.63C267.465 19.63 265.943 18.339 265.71 16.75H277.727C278.752 10.063 275.111 6.58701 269.55 6.58701ZM265.71 13.274C266.173 11.652 267.63 10.659 269.55 10.659C271.536 10.659 273.357 11.487 273.456 13.274H265.71ZM218.102 19.431C217.209 19.431 216.248 18.968 216.248 17.246V11.089H220.419V7.11701H216.281V2.54901L211.514 3.07901V7.11801H208.601V11.09H211.514V17.247C211.514 22.345 214.195 23.901 217.738 23.735C219.03 23.669 219.989 23.47 221.181 23.007L220.088 19.034C219.559 19.299 218.664 19.431 218.102 19.431ZM201.483 20.954C201.483 24.529 206.911 24.529 206.911 20.954C206.911 17.379 201.483 17.379 201.483 20.954ZM67.883 5.90086e-06C61.266 5.90086e-06 55.883 5.38301 55.883 12C55.883 18.617 61.266 24 67.883 24C74.5 24 79.883 18.617 79.883 12C79.883 5.38301 74.5 5.90086e-06 67.883 5.90086e-06ZM37.015 5.90086e-06H28V24H52V14.985H37.015V5.90086e-06ZM0 24H9.015V16.507H16.508V9.01401H24.001V5.90086e-06H0V24ZM80.741 5.90086e-06L93.854 24L98.553 15.399L103.252 24L116.364 5.90086e-06H80.741ZM155.5 5.90086e-06C148.883 5.90086e-06 143.5 5.38301 143.5 12C143.5 18.617 148.883 24 155.5 24C162.117 24 167.5 18.617 167.5 12C167.5 5.38301 162.117 5.90086e-06 155.5 5.90086e-06ZM155.5 22.222C149.863 22.222 145.278 17.636 145.278 12C145.278 6.36401 149.863 1.77801 155.5 1.77801C161.137 1.77801 165.722 6.36401 165.722 12C165.722 17.636 161.137 22.222 155.5 22.222ZM195 6.44501C195 2.89101 192.109 5.90086e-06 188.556 5.90086e-06H171V24H188.556C192.109 24 195.001 21.109 195.001 17.556C195.001 15.264 193.787 13.159 191.815 12C193.787 10.841 195.001 8.73601 195.001 6.44401L195 6.44501ZM182.11 22.222H172.777V1.77801H182.11V22.222ZM193.221 17.556C193.221 20.129 191.128 22.222 188.554 22.222H183.887V12.889H188.554C191.127 12.889 193.221 14.982 193.221 17.556ZM188.554 11.111H183.887V1.77801H188.554C191.127 1.77801 193.221 3.87101 193.221 6.44501C193.221 9.01901 191.128 11.111 188.554 11.111ZM127.109 11.111H115.998V24H128.739L128.887 23.975V23.965C134.801 23.53 139.527 18.803 139.962 12.889H139.998V5.90086e-06H127.109V11.111ZM127.109 22.222H117.777V12.889H127.109V22.222ZM128.887 1.77801H138.22L138.182 12.889C137.756 17.795 133.801 21.747 128.888 22.174V1.77801H128.887Z" fill="url(#paint0_linear_3033_1542)"/>
</g>
<defs>
<linearGradient id="paint0_linear_3033_1542" x1="0" y1="12" x2="294.513" y2="12" gradientUnits="userSpaceOnUse">
<stop stop-color="#00C8FF"/>
<stop offset="1" stop-color="#103AB4"/>
</linearGradient>
<clipPath id="clip0_3033_1542">
<rect width="296" height="24" fill="white"/>
</clipPath>
</defs>
</svg>
