<svg width="165" height="44" viewBox="0 0 165 44" fill="none" xmlns="http://www.w3.org/2000/svg">
<g clip-path="url(#clip0_3167_767)">
<path d="M22.2145 44C9.96556 44 0 34.1303 0 22.0007C0 9.87103 9.96556 0 22.2145 0C29.9101 0 36.9442 3.86718 41.0477 10.3489L28.9723 22.0007L41.05 33.6557C36.9294 40.1424 29.9022 44.0005 22.2149 44.0005L22.2145 44ZM22.2145 2.68624C11.4615 2.68624 2.71327 11.3503 2.71327 22.0007C2.71327 32.6511 11.4615 41.3142 22.2145 41.3142C28.1539 41.3142 33.7027 38.6654 37.4363 34.0467L37.4954 33.9732L27.0298 23.8756L16.4351 34.1002C16.042 34.4785 15.5254 34.6863 14.9815 34.6863C14.7016 34.6863 14.4285 34.631 14.1688 34.5228C13.3938 34.1989 12.8929 33.4515 12.8929 32.6196V11.3804C12.8929 10.5472 13.3938 9.79976 14.1702 9.47631C14.4266 9.36941 14.6988 9.31413 14.9788 9.31413C15.5259 9.31413 16.043 9.52291 16.4351 9.90209L27.0298 20.1258L37.4954 10.0282L37.4363 9.95463C33.7018 5.33502 28.1544 2.68624 22.2145 2.68624ZM15.6057 31.1508L25.0873 22.0002L15.6057 12.8487V31.1508Z" fill="#1D1D1F"/>
<path d="M66.1201 27.111C65.3221 27.6354 64.3622 27.8972 63.2408 27.8972C62.261 27.8972 61.4044 27.6706 60.6696 27.2165C59.9348 26.7629 59.366 26.11 58.9633 25.2566C58.5606 24.4037 58.3586 23.4064 58.3586 22.2643C58.3586 21.0907 58.5565 20.0856 58.9513 19.2482C59.3457 18.4113 59.9108 17.7658 60.6456 17.3121C61.3804 16.8585 62.2453 16.6314 63.2408 16.6314C64.3626 16.6314 65.3064 16.8859 66.0726 17.3939C66.8388 17.9028 67.3559 18.626 67.6248 19.5648H71.2505C71.0609 18.3131 70.6107 17.2217 69.8994 16.2906C69.1886 15.36 68.2725 14.64 67.1506 14.1311C66.0283 13.6231 64.7575 13.3687 63.3354 13.3687C61.6291 13.3687 60.128 13.7364 58.8328 14.4719C57.5366 15.2074 56.53 16.244 55.8109 17.5817C55.0918 18.9193 54.7324 20.4881 54.7324 22.2876C54.7324 24.1031 55.0802 25.6756 55.7754 27.005C56.4705 28.3353 57.4498 29.3637 58.7142 30.0914C59.9777 30.8192 61.4708 31.1828 63.1928 31.1828C64.6149 31.1828 65.8945 30.9247 67.0321 30.408C68.1696 29.8918 69.1092 29.164 69.8519 28.2252C70.5941 27.2864 71.0688 26.1991 71.274 24.9629H67.7194C67.4505 25.8706 66.9172 26.5865 66.1197 27.1105L66.1201 27.111ZM81.2866 19.4593C80.5048 19.076 79.5684 18.8846 78.4783 18.8846C77.3883 18.8846 76.4316 19.0568 75.6105 19.4008C74.789 19.7453 74.157 20.2382 73.7151 20.8796C73.2723 21.5215 73.0518 22.2798 73.0518 23.1561H75.7771C75.7771 22.5773 75.9939 22.1314 76.4284 21.8184C76.8625 21.5055 77.4912 21.3488 78.3127 21.3488C78.7703 21.3488 79.1615 21.4192 79.4858 21.5599C79.8091 21.7006 80.0619 21.9203 80.2441 22.2168C80.4259 22.5142 80.5168 22.8897 80.5168 23.3434V23.5544L77.1046 23.8359C75.6982 23.9455 74.6197 24.3169 73.8697 24.9506C73.1187 25.5842 72.7441 26.4408 72.7441 27.5203C72.7441 28.6313 73.1072 29.5231 73.8341 30.196C74.5602 30.869 75.54 31.2052 76.7725 31.2052C77.6729 31.2052 78.4788 31.0252 79.1896 30.6652C79.9005 30.3052 80.3664 29.836 80.5878 29.2568L80.8249 30.8996H83.6927V23.9524C83.6927 22.8573 83.487 21.9304 83.0764 21.1711C82.665 20.4123 82.069 19.8412 81.2871 19.4579L81.2866 19.4593ZM80.5403 26.3713C80.5403 27.1384 80.2953 27.7327 79.8055 28.1553C79.3156 28.5779 78.6758 28.789 77.8861 28.789C77.285 28.789 76.8316 28.6715 76.5234 28.4367C76.2153 28.2019 76.0612 27.8501 76.0612 27.3805C76.0612 26.9579 76.2388 26.6258 76.594 26.3828C76.9497 26.1402 77.5456 25.9876 78.3833 25.925L80.5403 25.7372V26.3713ZM92.8395 19.0486C91.8915 19.0486 91.1332 19.2989 90.5644 19.7996C90.1714 20.1459 89.8836 20.5635 89.6866 21.0441L89.4979 19.2601H86.441V30.9014H89.6875V25.5504C89.6875 24.4083 89.9874 23.5709 90.5879 23.0391C91.1885 22.5074 92.0101 22.241 93.053 22.241H94.1666V19.2135C93.9295 19.1509 93.7044 19.108 93.4913 19.0842C93.2777 19.0609 93.0604 19.0486 92.8395 19.0486ZM106.147 19.6119C105.317 19.1272 104.349 18.8846 103.244 18.8846C102.39 18.8846 101.608 19.0568 100.897 19.4008C100.186 19.7453 99.6572 20.2222 99.3099 20.8326L99.1203 19.2368H96.0869V36.3936H99.3334V29.5405C99.6969 30.0416 100.23 30.4482 100.933 30.7612C101.636 31.0741 102.414 31.2303 103.268 31.2303C104.437 31.2303 105.432 30.9562 106.254 30.4089C107.075 29.8616 107.703 29.1147 108.138 28.1677C108.572 27.2211 108.79 26.1374 108.79 24.9172C108.79 23.6655 108.556 22.59 108.09 21.6901C107.624 20.7905 106.976 20.098 106.147 19.6128L106.147 19.6119ZM105.128 26.7469C104.883 27.232 104.535 27.6117 104.085 27.8853C103.634 28.1594 103.093 28.296 102.461 28.296C101.845 28.296 101.304 28.1631 100.838 27.8967C100.371 27.6309 100.008 27.2512 99.7476 26.7583C99.487 26.2654 99.3565 25.7062 99.3565 25.0803C99.3565 24.4229 99.4866 23.8523 99.7476 23.3671C100.008 22.882 100.372 22.5069 100.838 22.2406C101.304 21.9747 101.845 21.8417 102.461 21.8417C103.093 21.8417 103.634 21.9788 104.085 22.2524C104.535 22.5265 104.882 22.9062 105.128 23.3909C105.372 23.8761 105.495 24.4393 105.495 25.0808C105.495 25.7066 105.372 26.2622 105.128 26.7469ZM110.992 30.9009H114.239V19.2364H110.992V30.9009ZM112.604 13.3691C112.067 13.3691 111.613 13.5532 111.241 13.9205C110.87 14.2883 110.685 14.7387 110.685 15.27C110.685 15.8013 110.87 16.2523 111.241 16.6196C111.613 16.9873 112.067 17.1714 112.604 17.1714C113.126 17.1714 113.572 16.9878 113.943 16.6196C114.314 16.2523 114.5 15.8023 114.5 15.27C114.5 14.7378 114.314 14.2883 113.943 13.9205C113.571 13.5532 113.126 13.3691 112.604 13.3691ZM124.098 18.8846C123.308 18.8846 122.589 19.0335 121.941 19.3305C121.293 19.6279 120.78 20.0505 120.401 20.5977L120.164 19.2368H117.13V30.9014H120.377V24.5645C120.377 23.7194 120.614 23.0505 121.088 22.5576C121.562 22.0647 122.202 21.8184 123.007 21.8184C123.703 21.8184 124.255 22.0491 124.666 22.5106C125.077 22.9724 125.282 23.6253 125.282 24.4704V30.9014H128.553V23.7194C128.553 22.2017 128.17 21.0167 127.404 20.1637C126.637 19.3113 125.535 18.8846 124.098 18.8846ZM138.565 28.1667C138.083 28.4249 137.471 28.5541 136.729 28.5541C135.718 28.5541 134.959 28.265 134.454 27.6857C134.073 27.2508 133.836 26.6468 133.742 25.8752L142.463 25.8551V24.9629C142.463 23.7111 142.223 22.6316 141.741 21.7243C141.259 20.817 140.579 20.1162 139.703 19.6238C138.826 19.1308 137.787 18.8846 136.587 18.8846C135.417 18.8846 134.383 19.1468 133.482 19.6708C132.582 20.1953 131.878 20.9189 131.373 21.8417C130.867 22.765 130.614 23.8368 130.614 25.057C130.614 26.2622 130.875 27.3261 131.397 28.249C131.918 29.1722 132.632 29.8959 133.541 30.4199C134.449 30.9439 135.488 31.2061 136.657 31.2061C138.237 31.2061 139.552 30.8306 140.603 30.0795C141.654 29.3285 142.289 28.3193 142.511 27.052H139.501C139.359 27.5372 139.047 27.9086 138.565 28.1667ZM134.027 23.0738C134.248 22.5498 134.568 22.1583 134.987 21.9002C135.405 21.6421 135.946 21.5128 136.61 21.5128C137.416 21.5128 138.052 21.7239 138.518 22.1465C138.984 22.5686 139.217 23.1401 139.217 23.8596H133.801C133.855 23.5718 133.929 23.3068 134.027 23.0734L134.027 23.0738ZM150.829 24.1182L148.672 23.6486C147.756 23.4457 147.298 23.0542 147.298 22.4754C147.298 22.0999 147.436 21.8024 147.712 21.5832C147.989 21.3643 148.372 21.2547 148.861 21.2547C149.367 21.2547 149.758 21.3881 150.035 21.654C150.311 21.9203 150.449 22.2798 150.449 22.7335H153.554C153.554 21.9514 153.36 21.2707 152.973 20.6914C152.585 20.1126 152.052 19.6667 151.373 19.3538C150.694 19.0408 149.903 18.8846 149.003 18.8846C148.071 18.8846 147.245 19.0335 146.527 19.3305C145.807 19.6279 145.239 20.0541 144.821 20.6096C144.402 21.1651 144.193 21.834 144.193 22.6165C144.193 23.6024 144.457 24.3535 144.987 24.8697C145.516 25.3859 146.317 25.7697 147.392 26.0196L149.525 26.4887C150.015 26.5984 150.338 26.7469 150.496 26.9351C150.654 27.1228 150.733 27.3339 150.733 27.5687C150.733 27.9292 150.58 28.2184 150.272 28.4372C149.963 28.6565 149.493 28.7657 148.861 28.7657C148.26 28.7657 147.794 28.6327 147.463 28.3668C147.131 28.101 146.949 27.741 146.918 27.2873H143.837C143.837 28.4609 144.279 29.4075 145.164 30.1271C146.048 30.847 147.241 31.2066 148.742 31.2066C149.753 31.2066 150.638 31.0499 151.397 30.7369C152.155 30.424 152.751 29.9708 153.186 29.376C153.62 28.7816 153.838 28.085 153.838 27.2873C153.838 26.38 153.585 25.6797 153.079 25.1867C152.573 24.6938 151.823 24.3384 150.828 24.1191L150.829 24.1182ZM164.242 25.1863C163.736 24.6934 162.985 24.3379 161.99 24.1186L159.834 23.649C158.917 23.4462 158.459 23.0547 158.459 22.4758C158.459 22.1003 158.598 21.8029 158.874 21.5836C159.15 21.3648 159.534 21.2551 160.023 21.2551C160.529 21.2551 160.92 21.3885 161.197 21.6544C161.473 21.9208 161.611 22.2803 161.611 22.734H164.715C164.715 21.9518 164.521 21.2711 164.134 20.6919C163.747 20.113 163.214 19.6672 162.535 19.3542C161.855 19.0413 161.065 18.885 160.165 18.885C159.232 18.885 158.407 19.034 157.688 19.3309C156.969 19.6283 156.401 20.0546 155.982 20.6101C155.563 21.1656 155.354 21.8344 155.354 22.617C155.354 23.6029 155.619 24.3539 156.148 24.8702C156.677 25.3864 157.479 25.7701 158.554 26.02L160.686 26.4892C161.176 26.5989 161.5 26.7473 161.658 26.9355C161.816 27.1233 161.895 27.3344 161.895 27.5692C161.895 27.9296 161.741 28.2188 161.433 28.4376C161.125 28.6569 160.655 28.7661 160.023 28.7661C159.422 28.7661 158.956 28.6332 158.625 28.3673C158.293 28.1014 158.111 27.7414 158.08 27.2878H154.999C154.999 28.4614 155.441 29.408 156.326 30.1275C157.21 30.8475 158.403 31.207 159.904 31.207C160.915 31.207 161.8 31.0503 162.558 30.7374C163.317 30.4245 163.913 29.9713 164.348 29.3765C164.782 28.7821 164.999 28.0854 164.999 27.2878C164.999 26.3805 164.747 25.6801 164.241 25.1872L164.242 25.1863Z" fill="#1D1D1F"/>
</g>
<defs>
<clipPath id="clip0_3167_767">
<rect width="165" height="44" fill="white"/>
</clipPath>
</defs>
</svg>
