<svg fill="none" height="44" viewBox="0 0 165 44" width="165" xmlns="http://www.w3.org/2000/svg" xmlns:xlink="http://www.w3.org/1999/xlink"><clipPath id="a"><path d="m0 0h165v44h-165z"/></clipPath><g clip-path="url(#a)" fill="#fff"><path d="m22.2145 44c-12.24894 0-22.2145-9.8697-22.2145-21.9993 0-12.12967 9.96556-22.0007 22.2145-22.0007 7.6956 0 14.7297 3.86718 18.8332 10.3489l-12.0754 11.6518 12.0777 11.655c-4.1206 6.4867-11.1478 10.3448-18.8351 10.3448zm0-41.31376c-10.753 0-19.50123 8.66406-19.50123 19.31446s8.74823 19.3135 19.50123 19.3135c5.9394 0 11.4882-2.6488 15.2218-7.2675l.0591-.0735-10.4656-10.0976-10.5947 10.2246c-.3931.3783-.9097.5861-1.4536.5861-.2799 0-.553-.0553-.8127-.1635-.775-.3239-1.2759-1.0713-1.2759-1.9032v-21.2392c0-.8332.5009-1.58064 1.2773-1.90409.2564-.1069.5286-.16218.8086-.16218.5471 0 1.0642.20878 1.4563.58796l10.5947 10.22371 10.4656-10.0976-.0591-.07357c-3.7345-4.61961-9.2819-7.26839-15.2218-7.26839zm-6.6088 28.46456 9.4816-9.1506-9.4816-9.1515z"/><path d="m66.1201 27.111c-.798.5244-1.7579.7862-2.8793.7862-.9798 0-1.8364-.2266-2.5712-.6807-.7348-.4536-1.3036-1.1065-1.7063-1.9599-.4027-.8529-.6047-1.8502-.6047-2.9923 0-1.1736.1979-2.1787.5927-3.0161.3944-.8369.9595-1.4824 1.6943-1.9361.7348-.4536 1.5997-.6807 2.5952-.6807 1.1218 0 2.0656.2545 2.8318.7625.7662.5089 1.2833 1.2321 1.5522 2.1709h3.6257c-.1896-1.2517-.6398-2.3431-1.3511-3.2742-.7108-.9306-1.6269-1.6506-2.7488-2.1595-1.1223-.508-2.3931-.7624-3.8152-.7624-1.7063 0-3.2074.3677-4.5026 1.1032-1.2962.7355-2.3028 1.7721-3.0219 3.1098-.7191 1.3376-1.0785 2.9064-1.0785 4.7059 0 1.8155.3478 3.388 1.043 4.7174.6951 1.3303 1.6744 2.3587 2.9388 3.0864 1.2635.7278 2.7566 1.0914 4.4786 1.0914 1.4221 0 2.7017-.2581 3.8393-.7748 1.1375-.5162 2.0771-1.244 2.8198-2.1828.7422-.9388 1.2169-2.0261 1.4221-3.2623h-3.5546c-.2689.9077-.8022 1.6236-1.5997 2.1476zm15.1665-7.6517c-.7818-.3833-1.7182-.5747-2.8083-.5747-1.09 0-2.0467.1722-2.8678.5162-.8215.3445-1.4535.8374-1.8954 1.4788-.4428.6419-.6633 1.4002-.6633 2.2765h2.7253c0-.5788.2168-1.0247.6513-1.3377.4341-.3129 1.0628-.4696 1.8843-.4696.4576 0 .8488.0704 1.1731.2111.3233.1407.5761.3604.7583.6569.1818.2974.2727.6729.2727 1.1266v.211l-3.4122.2815c-1.4064.1096-2.4849.481-3.2349 1.1147-.751.6336-1.1256 1.4902-1.1256 2.5697 0 1.111.3631 2.0028 1.09 2.6757.7261.673 1.7059 1.0092 2.9384 1.0092.9004 0 1.7063-.18 2.4171-.54.7109-.36 1.1768-.8292 1.3982-1.4084l.2371 1.6428h2.8678v-6.9472c0-1.0951-.2057-2.022-.6163-2.7813-.4114-.7588-1.0074-1.3299-1.7893-1.7132zm-.7463 6.912c0 .7671-.245 1.3614-.7348 1.784-.4899.4226-1.1297.6337-1.9194.6337-.6011 0-1.0545-.1175-1.3627-.3523-.3081-.2348-.4622-.5866-.4622-1.0562 0-.4226.1776-.7547.5328-.9977.3557-.2426.9516-.3952 1.7893-.4578l2.157-.1878zm12.2992-7.3227c-.948 0-1.7063.2503-2.2751.751-.393.3463-.6808.7639-.8778 1.2445l-.1887-1.784h-3.0569v11.6413h3.2465v-5.351c0-1.1421.2999-1.9795.9004-2.5113.6006-.5317 1.4222-.7981 2.4651-.7981h1.1136v-3.0275c-.2371-.0626-.4622-.1055-.6753-.1293-.2136-.0233-.4309-.0356-.6518-.0356zm13.3075.5633c-.83-.4847-1.798-.7273-2.903-.7273-.854 0-1.636.1722-2.347.5162-.711.3445-1.2398.8214-1.5871 1.4318l-.1896-1.5958h-3.0334v17.1568h3.2465v-6.8531c.3635.5011.8966.9077 1.5996 1.2207.703.3129 1.481.4691 2.335.4691 1.169 0 2.164-.2741 2.986-.8214.821-.5473 1.449-1.2942 1.884-2.2412.434-.9466.652-2.0303.652-3.2505 0-1.2517-.234-2.3272-.7-3.2271-.466-.8996-1.114-1.5921-1.943-2.0773zm-1.019 7.135c-.245.4851-.593.8648-1.043 1.1384-.451.2741-.992.4107-1.624.4107-.616 0-1.157-.1329-1.623-.3993-.467-.2658-.83-.6455-1.0904-1.1384-.2606-.4929-.3911-1.0521-.3911-1.678 0-.6574.1301-1.228.3911-1.7132.2604-.4851.6244-.8602 1.0904-1.1265.466-.2659 1.007-.3989 1.623-.3989.632 0 1.173.1371 1.624.4107.45.2741.797.6538 1.043 1.1385.244.4852.367 1.0484.367 1.6899 0 .6258-.123 1.1814-.367 1.6661zm5.864 4.154h3.247v-11.6645h-3.247zm1.612-17.5318c-.537 0-.991.1841-1.363.5514-.371.3678-.556.8182-.556 1.3495s.185.9823.556 1.3496c.372.3677.826.5518 1.363.5518.522 0 .968-.1836 1.339-.5518.371-.3673.557-.8173.557-1.3496 0-.5322-.186-.9817-.557-1.3495-.372-.3673-.817-.5514-1.339-.5514zm11.494 5.5155c-.79 0-1.509.1489-2.157.4459-.648.2974-1.161.72-1.54 1.2672l-.237-1.3609h-3.034v11.6646h3.247v-6.3369c0-.8451.237-1.514.711-2.0069s1.114-.7392 1.919-.7392c.696 0 1.248.2307 1.659.6922.411.4618.616 1.1147.616 1.9598v6.431h3.271v-7.182c0-1.5177-.383-2.7027-1.149-3.5557-.767-.8524-1.869-1.2791-3.306-1.2791zm14.467 9.2821c-.482.2582-1.094.3874-1.836.3874-1.011 0-1.77-.2891-2.275-.8684-.381-.4349-.618-1.0389-.712-1.8105l8.721-.0201v-.8922c0-1.2518-.24-2.3313-.722-3.2386s-1.162-1.6081-2.038-2.1005c-.877-.493-1.916-.7392-3.116-.7392-1.17 0-2.204.2622-3.105.7862-.9.5245-1.604 1.2481-2.109 2.1709-.506.9233-.759 1.9951-.759 3.2153 0 1.2052.261 2.2691.783 3.192.521.9232 1.235 1.6469 2.144 2.1709.908.524 1.947.7862 3.116.7862 1.58 0 2.895-.3755 3.946-1.1266 1.051-.751 1.686-1.7602 1.908-3.0275h-3.01c-.142.4852-.454.8566-.936 1.1147zm-4.538-5.0929c.221-.524.541-.9155.96-1.1736.418-.2581.959-.3874 1.623-.3874.806 0 1.442.2111 1.908.6337.466.4221.699.9936.699 1.7131h-5.416c.054-.2878.128-.5528.226-.7862zm16.802 1.0444-2.157-.4696c-.916-.2029-1.374-.5944-1.374-1.1732 0-.3755.138-.673.414-.8922.277-.2189.66-.3285 1.149-.3285.506 0 .897.1334 1.174.3993.276.2663.414.6258.414 1.0795h3.105c0-.7821-.194-1.4628-.581-2.0421-.388-.5788-.921-1.0247-1.6-1.3376-.679-.313-1.47-.4692-2.37-.4692-.932 0-1.758.1489-2.476.4459-.72.2974-1.288.7236-1.706 1.2791-.419.5555-.628 1.2244-.628 2.0069 0 .9859.264 1.737.794 2.2532.529.5162 1.33.9 2.405 1.1499l2.133.4691c.49.1097.813.2582.971.4464.158.1877.237.3988.237.6336 0 .3605-.153.6497-.461.8685-.309.2193-.779.3285-1.411.3285-.601 0-1.067-.133-1.398-.3989-.332-.2658-.514-.6258-.545-1.0795h-3.081c0 1.1736.442 2.1202 1.327 2.8398.884.7199 2.077 1.0795 3.578 1.0795 1.011 0 1.896-.1567 2.655-.4697.758-.3129 1.354-.7661 1.789-1.3609.434-.5944.652-1.291.652-2.0887 0-.9073-.253-1.6076-.759-2.1006-.506-.4929-1.256-.8483-2.251-1.0676zm13.413 1.0681c-.506-.4929-1.257-.8484-2.252-1.0677l-2.156-.4696c-.917-.2028-1.375-.5943-1.375-1.1732 0-.3755.139-.6729.415-.8922.276-.2188.66-.3285 1.149-.3285.506 0 .897.1334 1.174.3993.276.2664.414.6259.414 1.0796h3.104c0-.7822-.194-1.4629-.581-2.0421-.387-.5789-.92-1.0247-1.599-1.3377-.68-.3129-1.47-.4692-2.37-.4692-.933 0-1.758.149-2.477.4459-.719.2974-1.287.7237-1.706 1.2792s-.628 1.2243-.628 2.0069c0 .9859.265 1.7369.794 2.2532.529.5162 1.331.8999 2.406 1.1498l2.132.4692c.49.1097.814.2581.972.4463.158.1878.237.3989.237.6337 0 .3604-.154.6496-.462.8684-.308.2193-.778.3285-1.41.3285-.601 0-1.067-.1329-1.398-.3988-.332-.2659-.514-.6259-.545-1.0795h-3.081c0 1.1736.442 2.1202 1.327 2.8397.884.72 2.077 1.0795 3.578 1.0795 1.011 0 1.896-.1567 2.654-.4696.759-.3129 1.355-.7661 1.79-1.3609.434-.5944.651-1.2911.651-2.0887 0-.9073-.252-1.6077-.758-2.1006z"/></g></svg>