<svg width="24" height="24" viewBox="0 0 24 24" fill="none" xmlns="http://www.w3.org/2000/svg">
<g clip-path="url(#clip0_3167_754)">
<path d="M11.9964 1.19197e-08C11.7085 3.85714e-05 11.4257 0.0759177 11.1764 0.22L3.34439 4.74C3.13103 4.86386 2.9482 5.03405 2.80939 5.238L11.9454 10.518L21.1584 5.198C21.0223 5.01136 20.8485 4.85533 20.6484 4.74L12.8184 0.22C12.5685 0.0755779 12.285 -0.000313202 11.9964 1.19197e-08ZM21.3324 5.5L11.9454 10.922L2.64539 5.549C2.56643 5.74444 2.52569 5.95321 2.52539 6.164V15.207C2.52564 15.4947 2.60142 15.7772 2.74515 16.0264C2.88887 16.2756 3.09551 16.4827 3.34439 16.627L7.26239 18.893V23.51C7.26286 23.5964 7.286 23.6811 7.32951 23.7557C7.37301 23.8303 7.43535 23.8922 7.51029 23.9351C7.58522 23.978 7.67012 24.0005 7.75649 24.0003C7.84285 24.0001 7.92765 23.9773 8.00239 23.934L20.6564 16.631C20.9055 16.487 21.1124 16.28 21.2562 16.0307C21.3999 15.7815 21.4755 15.4988 21.4754 15.211V6.162C21.474 5.93383 21.4253 5.70842 21.3324 5.5Z" fill="#FF9800"/>
</g>
<defs>
<clipPath id="clip0_3167_754">
<rect width="24" height="24" fill="white"/>
</clipPath>
</defs>
</svg>
