<svg width="24" height="24" viewBox="0 0 24 24" fill="none" xmlns="http://www.w3.org/2000/svg">
<g clip-path="url(#clip0_3167_866)">
<path d="M6.775 3.38699C4.434 3.38699 2.176 3.92799 0 5.00999V20.612H2.435V6.43399C3.749 6.02499 5.096 5.82199 6.476 5.82199C7.381 5.82199 8.144 5.93799 8.762 6.16899C9.38 6.38999 9.822 6.70499 10.087 7.11399C10.363 7.52199 10.545 7.91399 10.633 8.28899C10.732 8.65299 10.783 9.08399 10.783 9.58099V20.612H13.218V9.58099C13.218 8.45499 13.036 7.48299 12.672 6.66599C14.372 6.10299 15.935 5.82199 17.36 5.82199C18.243 5.82199 18.983 5.93799 19.579 6.16899C20.186 6.38999 20.623 6.70999 20.888 7.12999C21.164 7.54999 21.346 7.94699 21.434 8.32199C21.522 8.68599 21.566 9.10599 21.566 9.58099V20.612H24.002V9.58099C24.002 7.61599 23.433 6.09199 22.295 5.00999C21.169 3.92799 19.579 3.38699 17.525 3.38699C15.515 3.38699 13.423 3.84999 11.247 4.77799C10.121 3.84999 8.63 3.38699 6.775 3.38699Z" fill="#7CCAD1"/>
</g>
<defs>
<clipPath id="clip0_3167_866">
<rect width="24" height="24" fill="white"/>
</clipPath>
</defs>
</svg>
