<svg width="24" height="24" viewBox="0 0 24 24" fill="none" xmlns="http://www.w3.org/2000/svg">
<g clip-path="url(#clip0_3167_800)">
<path d="M2.162 10.89H2.157C0.966 10.89 0 9.924 0 8.732V2.157C0 0.966 0.966 0 2.157 0H2.162C3.354 0 4.319 0.966 4.319 2.157V8.732C4.319 9.923 3.353 10.889 2.162 10.889V10.89ZM4.319 21.843V15.268C4.319 14.077 3.353 13.111 2.162 13.111H2.157C0.966 13.11 0 14.076 0 15.268V21.843C0 23.034 0.966 24 2.157 24H2.162C3.353 24 4.319 23.034 4.319 21.843ZM17.44 2.157C17.44 0.966 16.474 0 15.283 0H15.278C14.087 0 13.121 0.966 13.121 2.157C13.121 3.348 14.087 4.314 15.278 4.314H15.283C16.474 4.314 17.44 3.348 17.44 2.157ZM10.88 21.843C10.88 20.652 9.914 19.686 8.723 19.686H8.718C7.527 19.686 6.561 20.652 6.561 21.843C6.561 23.034 7.527 24 8.718 24H8.723C9.914 24 10.88 23.034 10.88 21.843ZM17.44 21.843V8.713C17.44 7.522 16.474 6.556 15.283 6.556H15.278C14.087 6.556 13.121 7.522 13.121 8.713V21.843C13.121 23.034 14.087 24 15.278 24H15.283C16.474 24 17.44 23.034 17.44 21.843ZM10.88 15.288V2.157C10.88 0.966 9.914 0 8.722 0H8.717C7.526 0 6.56 0.966 6.56 2.157V15.287C6.56 16.478 7.526 17.444 8.717 17.444H8.722C9.913 17.444 10.879 16.478 10.879 15.287L10.88 15.288ZM24 21.843V2.157C24 0.966 23.034 0 21.843 0H21.838C20.647 0 19.681 0.966 19.681 2.157V21.842C19.681 23.033 20.647 23.999 21.838 23.999H21.843C23.034 23.999 24 23.033 24 21.842V21.843Z" fill="#0098A7"/>
</g>
<defs>
<clipPath id="clip0_3167_800">
<rect width="24" height="24" fill="white"/>
</clipPath>
</defs>
</svg>
